<svg width="897" height="1024" xmlns="http://www.w3.org/2000/svg" xmlns:xlink="http://www.w3.org/1999/xlink" xml:space="preserve" overflow="hidden"><defs><clipPath id="clip0"><rect x="1315" y="263" width="897" height="1024"/></clipPath></defs><g clip-path="url(#clip0)" transform="translate(-1315 -263)"><path d="M1423.96 1215.1C1415.45 1203.52 1398.03 1182.33 1388.66 1163.82 1381.71 1150.1 1385.96 1135.82 1389.19 1122.43 1390.16 1118.41 1390.51 1114.11 1392.49 1110.48 1395.28 1105.35 1399.65 1101.25 1403.23 1096.63 1418.71 1084.75 1432.09 1069.48 1449.66 1060.98 1460.81 1055.59 1475.09 1061.06 1486.54 1056.33 1503.69 1049.24 1493.08 1053.07 1518.93 1046.47 1525.23 1037.99 1534.61 1031.09 1537.82 1021.02 1545.09 998.214 1542.67 976.498 1535.25 955.043 1533.7 950.579 1530.98 946.613 1528.84 942.399 1516.73 930.155 1506.48 915.725 1492.49 905.668 1485.79 900.844 1476.42 901.746 1468.6 899.076 1461.33 896.592 1454.4 893.181 1447.3 890.234 1379.48 837.618 1405.38 861.783 1319.74 732.411 1316.19 727.052 1315.26 695.61 1315.43 690.674 1315.93 676.099 1317.52 661.582 1318.56 647.036 1319.14 638.954 1318.84 630.76 1320.31 622.792 1321.64 615.577 1323.77 608.465 1324.3 601.147 1324.71 595.433 1322.68 589.717 1323.09 584.003 1324.92 558.532 1327.13 575.778 1332.63 553.009 1339.11 526.17 1324.67 550.075 1344.42 524.615 1346.38 517.504 1349.47 504.356 1353.61 498.47 1358.91 490.91 1365.96 484.737 1372.14 477.871 1376.13 478.97 1381.12 478.302 1384.09 481.167 1390.75 487.575 1396.36 495.518 1399.49 504.207 1402.48 512.489 1398.87 542.965 1398.61 550.444 1398.13 564.233 1397.41 578.05 1398.07 591.832 1398.39 598.505 1400.16 605.036 1401.53 611.575 1404.05 623.615 1409.63 640.848 1413.29 651.411 1414.47 654.835 1416.05 658.108 1417.44 661.457 1421.82 668.271 1426.37 674.984 1430.59 681.898 1433.64 686.884 1436.27 692.112 1439.24 697.141 1442.79 703.142 1446.51 709.036 1450.15 714.984 1527.61 796.636 1477.46 751.041 1513.85 778.05 1518.54 781.532 1522.56 786 1527.7 788.793 1531.33 790.768 1535.75 790.719 1539.64 792.089 1544.48 793.789 1548.72 797.917 1553.84 797.984 1563.08 798.104 1571.97 794.414 1581.03 792.629 1587.21 785.763 1593.68 779.143 1599.57 772.03 1602.58 768.393 1607.37 765.144 1607.71 760.432 1608.38 751.218 1604.14 742.305 1602.36 733.241 1597.97 726.427 1593.96 719.362 1589.2 712.8 1578.43 697.924 1565.74 684.419 1555.8 668.971 1552.46 663.782 1552.23 657.124 1549.75 651.478 1545.94 642.831 1540.31 635.014 1536.94 626.188 1535.47 622.329 1536.41 617.895 1535.39 613.892 1533.23 605.437 1529.59 597.406 1527.43 588.951 1526.41 584.948 1526.78 580.687 1525.88 576.655 1523.09 564.152 1517.98 552.128 1516.37 539.418 1513.25 514.732 1510.74 503.382 1510.85 480.536 1510.88 475.676 1511.92 470.851 1511.9 465.99 1511.81 447.907 1507.3 436.874 1510.53 417.155 1511.78 409.57 1516.78 403.093 1519.37 395.859 1523.89 383.283 1525.04 369.259 1531.86 357.767 1535.56 351.534 1539.03 345.166 1542.95 339.07 1553.18 323.143 1565.89 307.862 1573.27 290.076 1575.84 283.906 1577.44 277.379 1579.52 271.03 1583.73 268.896 1589.07 261.057 1592.16 264.629 1595.91 268.96 1588.49 275.696 1588.52 281.425 1588.54 286.549 1591.96 291.208 1592.32 296.32 1592.77 302.785 1590.96 309.233 1590.93 315.715 1590.69 362.589 1594.06 306.033 1591.09 347.405 1593.74 355.719 1597.19 363.819 1599.04 372.346 1600.26 377.944 1599.14 383.87 1600.25 389.491 1601.85 397.632 1612.53 412.499 1615.3 417.379 1623.16 431.216 1621.47 429.113 1625.51 444.919 1638.03 462.877 1650.9 480.595 1663.06 498.794 1668.2 506.474 1673.23 514.225 1678.47 521.833 1706.75 562.914 1689.72 535.918 1709.27 567.913 1727.39 587.086 1742.18 610.07 1763.62 625.433 1768.64 629.026 1775.14 620.906 1781.12 619.38 1816.52 610.341 1761.67 630.945 1813.5 609.525 1830.94 592.909 1849.62 577.502 1865.82 559.677 1870.28 554.777 1872.79 539.847 1875.01 533.532 1882.98 510.857 1882.98 523.112 1887.84 490.591 1889.52 479.373 1887.88 467.735 1890.28 456.65 1891.5 451.052 1892.58 445.423 1893.93 439.854 1894.9 435.839 1896.55 431.984 1897.22 427.907 1898.01 423.11 1897.32 418.129 1898.27 413.361 1899.88 405.257 1904.86 389.466 1904.86 389.466 1909.07 387.332 1912.79 382.726 1917.5 383.065 1922.21 383.404 1926.21 387.472 1929.1 391.21 1939.01 404.03 1947.55 417.919 1955.4 432.091 1960.6 441.456 1962.04 454.379 1965.26 464.48 1966.36 467.932 1968.16 471.128 1969.41 474.526 1971.56 480.312 1972.77 486.471 1975.47 492.019 1980.58 502.526 1992.77 522.506 1992.77 522.506 2016.14 547.743 2038.91 573.542 2062.88 598.217 2066.82 602.282 2082.97 613.345 2088.32 617.105 2113.71 648.173 2139.69 678.764 2164.48 710.31 2169.49 716.68 2172.88 724.189 2177.63 730.751 2188.41 745.627 2199.9 759.97 2211.04 774.58 2202.61 778.847 2194.9 785.045 2185.75 787.382 2181.75 788.404 2177.54 785.842 2173.8 784.086 2167.24 781.006 2161.8 775.773 2155.1 772.994 2150.37 771.029 2145.51 769.339 2140.91 767.099 2137.65 765.516 2135.14 762.089 2131.56 761.553 2124.3 760.467 2116.9 762.642 2109.56 762.408 2096.61 761.996 2083.27 763.066 2070.77 759.618 2066.79 758.52 2062.96 756.344 2058.83 756.322 2008.24 756.058 2055.21 759.872 2019.34 763.23 2014.5 763.683 2009.56 761.244 2004.79 762.184 1997.61 763.599 1969.29 783.868 1969.11 783.986 1950.69 802.969 1931.19 820.964 1913.85 840.933 1900.99 855.729 1904.25 872.789 1902.92 891.322L1901.52 910.716C1901.17 915.565 1901.77 920.576 1900.48 925.262L1890.59 961.104C1889.49 965.087 1889.4 969.499 1887.3 973.052 1885.45 976.168 1883.24 979.099 1881.75 982.4 1876.47 994.072 1867.02 1017.89 1867.02 1017.89L1750.43 1114.29C1747.6 1116.55 1743.62 1116.81 1740.39 1118.45 1722.62 1127.44 1727.67 1128.04 1707.65 1133.15 1701.18 1134.8 1694.32 1134.71 1687.91 1136.6 1680.96 1138.65 1674.75 1142.8 1667.82 1144.91 1663.87 1146.11 1659.43 1145.11 1655.52 1146.46 1580.8 1172.31 1675.07 1144.89 1615.34 1163.06 1581.75 1173.28 1622.15 1160.08 1578.45 1167.72 1572.37 1168.78 1566.79 1171.76 1560.96 1173.77 1554.49 1173.31 1548.05 1172.35 1541.56 1172.38 1516.19 1172.51 1520.2 1184.37 1497.39 1210.63 1490.8 1221.73 1488.61 1223.89 1485.6 1239.02 1482.45 1254.88 1486.77 1260.26 1480.56 1275.21 1478.75 1279.58 1475.14 1282.95 1472.42 1286.81 1465.91 1275.8 1448.94 1246.13 1439.71 1233.29 1437.04 1229.56 1432.47 1226.67 1423.96 1215.1Z" fill="#FFC000" fill-rule="evenodd"/></g></svg>